<?xml version="1.0" encoding="UTF-8" standalone="no"?>
<!DOCTYPE svg PUBLIC "-//W3C//DTD SVG 1.1//EN" "http://www.w3.org/Graphics/SVG/1.1/DTD/svg11.dtd">
<svg width="100%" height="100%" viewBox="0 0 246 86" version="1.1" xmlns="http://www.w3.org/2000/svg" xmlns:xlink="http://www.w3.org/1999/xlink" xml:space="preserve" xmlns:serif="http://www.serif.com/" style="fill-rule:evenodd;clip-rule:evenodd;stroke-linejoin:round;stroke-miterlimit:2;">
    <path d="M245.577,0.678L0.595,0.675L14.601,21.444C13.716,23.614 13.093,25.871 12.74,28.183C12.235,31.501 12.323,34.834 13.002,38.092C13.712,41.496 15.012,44.559 16.899,47.236C17.262,47.739 17.65,48.23 18.065,48.709L2.84,53.063L4.445,60.647C5.269,64.538 6.249,67.494 7.43,69.659C10.11,74.646 14.324,78.522 19.957,81.181C24.539,83.41 30.271,84.494 37.479,84.494C42.749,84.494 47.591,83.948 51.921,82.859C55.404,81.941 58.934,80.298 62.431,77.964C66.134,75.47 69.175,72.586 71.545,69.332L69.344,84.497L105.268,84.497L108.791,60.219C109.931,69.281 114.389,76.233 121.805,80.435C126.628,83.166 133.05,84.493 141.438,84.493C146.948,84.493 151.449,84.009 155.195,83.016C162.012,81.216 167.79,77.662 172.361,72.461C173.925,70.689 175.29,68.801 176.459,66.819L173.894,84.493L237.12,84.493L241.876,51.72L238.17,51.72L245.577,0.678ZM146.652,5.361L72.637,5.363L83.19,21.717L74.759,79.817L101.217,79.817L111.102,11.694L117.729,21.696L114.013,46.639C113.362,51.011 113.102,54.396 113.217,56.985C113.607,65.966 117.273,72.485 124.116,76.363C128.216,78.684 133.883,79.813 141.441,79.813C146.541,79.813 150.651,79.38 154.002,78.492C159.904,76.933 164.902,73.86 168.852,69.365C171.298,66.595 173.204,63.513 174.514,60.206C175.79,56.987 176.786,52.899 177.559,47.708L182.621,13.728L187.747,21.672L179.31,79.812L233.069,79.812L236.466,56.407L209.164,56.407L209.568,53.626L233.165,53.626L236.418,31.205L212.822,31.205L213.176,28.768L236.77,28.768L240.168,5.363L157.376,5.359L151.263,46.398C150.515,51.417 149.722,53.445 149.341,54.162C148.665,55.39 147.424,56.798 143.788,56.798C140.672,56.798 140.278,55.771 140.12,55.357C140.009,55.075 139.501,53.367 140.38,47.468L146.652,5.361ZM50.362,5.361L9.406,5.363L19.329,20.077L19.968,21.006C18.664,23.497 17.792,26.147 17.373,28.89C16.953,31.655 17.026,34.43 17.59,37.14C18.168,39.914 19.207,42.379 20.702,44.5C22.18,46.55 24.258,48.389 26.879,49.965C27.304,50.222 27.734,50.465 28.169,50.696L8.33,56.369L9.03,59.68C9.758,63.121 10.588,65.666 11.558,67.446C13.757,71.538 17.281,74.746 21.984,76.961C25.916,78.88 30.986,79.813 37.482,79.813C42.369,79.813 46.812,79.318 50.73,78.333C53.712,77.546 56.764,76.119 59.816,74.083C67.11,69.169 71.438,62.55 72.678,54.411C73.174,51.152 73.035,48.008 72.263,45.065C71.375,41.686 69.778,38.953 67.502,36.931C65.469,35.145 62.845,33.684 59.554,32.511L77.488,25.783L76.988,22.83C76.678,20.999 76.344,19.608 75.956,18.55C75.026,16.071 73.471,13.729 71.315,11.568C67.085,7.394 60.238,5.365 50.386,5.365L50.365,5.365L50.362,5.361ZM35.99,55.668C35.941,55.605 35.53,55.039 35.093,53.23C41.081,54.499 42.786,55.069 43.249,55.258C43.911,55.527 44.111,55.752 44.124,55.752L44.124,55.752C44.127,55.771 44.138,55.858 44.111,56.038C44.055,56.406 43.965,56.532 43.596,56.73C42.829,57.149 41.84,57.362 40.655,57.362C37.291,57.362 36.323,56.101 35.99,55.668ZM48.191,26.129C49.43,26.129 50.333,26.479 51.144,27.292C51.713,27.851 52.115,28.945 52.307,30.457L52.32,30.563L48.891,29.791C47.5,29.471 46.139,29.012 44.891,28.448C44.604,28.314 44.442,28.202 44.36,28.135C44.361,28.126 44.362,28.119 44.364,28.11C44.398,27.884 44.47,27.415 45.502,26.833C46.342,26.359 47.222,26.129 48.191,26.129L48.191,26.129ZM245.577,0.678L245.579,0.678L245.577,0.676L245.577,0.678Z" style="fill:rgb(229,24,45);"/>
    <g transform="matrix(1.41063,0,0,-1.41063,-444.812,244.506)">
        <path d="M351.03,166.96L326.835,166.959L331.151,160.559L332.527,158.557C332.352,158.286 332.184,158.013 332.027,157.736L331.881,157.471C331.022,155.89 330.456,154.222 330.188,152.466C329.935,150.804 329.977,149.159 330.317,147.53C330.656,145.902 331.248,144.489 332.091,143.292C332.937,142.118 334.143,141.06 335.709,140.118C337.275,139.176 338.915,138.516 340.631,138.14C343.984,137.431 346.092,136.899 346.957,136.545C348.647,135.857 349.375,134.749 349.143,133.221C348.98,132.157 348.422,131.371 347.469,130.861C346.537,130.351 345.43,130.097 344.148,130.097C341.713,130.097 339.934,130.828 338.811,132.29C338.328,132.91 337.929,133.941 337.615,135.381L324.246,131.559C324.706,129.387 325.22,127.781 325.788,126.739C327.086,124.324 329.17,122.441 332.041,121.089C334.446,119.915 337.732,119.327 341.898,119.327C345.167,119.327 348.078,119.649 350.633,120.292C352.48,120.779 354.367,121.665 356.293,122.95C360.864,126.03 363.535,130.097 364.304,135.148C364.605,137.121 364.524,138.982 364.065,140.733C363.565,142.638 362.704,144.134 361.481,145.22C359.69,146.793 356.948,148 353.252,148.842L349.411,149.707C348.254,149.973 347.137,150.349 346.058,150.837C344.642,151.502 344.035,152.487 344.234,153.794C344.409,154.947 345.104,155.867 346.32,156.553C347.302,157.107 348.358,157.384 349.491,157.384C351.05,157.384 352.349,156.864 353.387,155.823C354.223,155.002 354.748,153.751 354.961,152.066L367.366,156.719C367.175,157.85 366.974,158.703 366.763,159.279C366.231,160.697 365.335,162.038 364.075,163.301C361.605,165.738 357.262,166.957 351.045,166.957C351.038,166.957 351.031,166.957 351.024,166.957L351.03,166.96ZM391.766,166.96L371.543,166.959L376.985,158.525L376.986,158.526L371.298,119.325L384.853,119.325L391.766,166.96ZM416.304,166.96L395.906,166.959L401.473,158.555L401.477,158.557L398.697,139.892C398.264,136.986 398.085,134.705 398.159,133.048C398.395,127.6 400.537,123.73 404.581,121.438C407.068,120.031 410.739,119.327 415.596,119.327C418.956,119.327 421.705,119.611 423.843,120.178C427.54,121.154 430.626,123.049 433.099,125.864C434.643,127.612 435.827,129.525 436.65,131.601C437.473,133.678 438.141,136.441 438.655,139.892L442.687,166.96L429.11,166.96L425.104,140.062C424.654,137.043 424.102,134.921 423.45,133.695C422.275,131.562 420.212,130.495 417.259,130.495C414.606,130.495 412.941,131.38 412.263,133.151C411.783,134.376 411.794,136.68 412.298,140.062L416.304,166.96ZM445.683,166.959L451.107,158.555L445.414,119.328L478.324,119.328L479.985,130.773L460.63,130.773L461.663,137.891L478.39,137.891L479.95,148.639L463.223,148.639L464.22,155.514L480.947,155.514L482.608,166.959L445.683,166.959Z" style="fill:rgb(229,24,45);fill-rule:nonzero;"/>
    </g>
</svg>
